<?xml version="1.0" encoding="UTF-8" standalone="no"?>
<!-- Created with Inkscape (http://www.inkscape.org/) -->
<svg
   xmlns:dc="http://purl.org/dc/elements/1.1/"
   xmlns:cc="http://web.resource.org/cc/"
   xmlns:rdf="http://www.w3.org/1999/02/22-rdf-syntax-ns#"
   xmlns:svg="http://www.w3.org/2000/svg"
   xmlns="http://www.w3.org/2000/svg"
   xmlns:sodipodi="http://inkscape.sourceforge.net/DTD/sodipodi-0.dtd"
   xmlns:inkscape="http://www.inkscape.org/namespaces/inkscape"
   width="600.00000pt"
   height="600.00000pt"
   id="svg2"
   sodipodi:version="0.32"
   inkscape:version="0.41"
   sodipodi:docbase="/home/support/Source/ezix-workspace/packages/lshw/development/src/gui/artwork"
   sodipodi:docname="parallel.svg">
  <defs
     id="defs3" />
  <sodipodi:namedview
     inkscape:guide-bbox="true"
     showguides="true"
     inkscape:grid-points="true"
     showgrid="true"
     id="base"
     pagecolor="#ffffff"
     bordercolor="#666666"
     borderopacity="1.0"
     inkscape:pageopacity="0.0"
     inkscape:pageshadow="2"
     inkscape:zoom="0.17500000"
     inkscape:cx="213.00572"
     inkscape:cy="227.21470"
     inkscape:document-units="px"
     inkscape:current-layer="layer1"
     inkscape:window-width="946"
     inkscape:window-height="674"
     inkscape:window-x="0"
     inkscape:window-y="26" />
  <metadata
     id="metadata4">
    <rdf:RDF
       id="RDF5">
      <cc:Work
         rdf:about=""
         id="Work6">
        <dc:format
           id="format7">image/svg+xml</dc:format>
        <dc:type
           id="type9"
           rdf:resource="http://purl.org/dc/dcmitype/StillImage" />
        <dc:date
           id="date2068">2005/03/28</dc:date>
        <dc:creator
           id="creator2070">
          <cc:Agent
             id="Agent2072">
            <dc:title
               id="title2074">Lyonel Vincent</dc:title>
          </cc:Agent>
        </dc:creator>
        <dc:publisher
           id="publisher2076">
          <cc:Agent
             id="Agent2078">
            <dc:title
               id="title2080">ezIX.org</dc:title>
          </cc:Agent>
        </dc:publisher>
        <dc:identifier
           id="identifier2082">serial</dc:identifier>
        <dc:source
           id="source2084">$Id$</dc:source>
        <dc:language
           id="language2086">C</dc:language>
        <dc:subject
           id="subject2088">
          <rdf:Bag
             id="Bag2090">
            <rdf:li
               id="li2120">serial binary</rdf:li>
          </rdf:Bag>
        </dc:subject>
        <cc:license
           id="license2122"
           rdf:resource="http://creativecommons.org/licenses/GPL/2.0/" />
        <dc:title
           id="title2138">Serial logo</dc:title>
      </cc:Work>
      <cc:License
         rdf:about="http://creativecommons.org/licenses/GPL/2.0/"
         id="License2124">
        <cc:permits
           rdf:resource="http://web.resource.org/cc/Reproduction"
           id="permits2126" />
        <cc:permits
           rdf:resource="http://web.resource.org/cc/Distribution"
           id="permits2128" />
        <cc:requires
           rdf:resource="http://web.resource.org/cc/Notice"
           id="requires2130" />
        <cc:permits
           rdf:resource="http://web.resource.org/cc/DerivativeWorks"
           id="permits2132" />
        <cc:requires
           rdf:resource="http://web.resource.org/cc/ShareAlike"
           id="requires2134" />
        <cc:requires
           rdf:resource="http://web.resource.org/cc/SourceCode"
           id="requires2136" />
      </cc:License>
    </rdf:RDF>
  </metadata>
  <g
     inkscape:label="Layer 1"
     inkscape:groupmode="layer"
     id="layer1">
    <path
       id="path2228"
       d="M 124.05387,266.76570 C 112.01645,266.79594 100.61454,272.48076 93.593334,282.25856 C 86.572112,292.03628 84.785899,304.71684 88.604102,316.13278 L 130.61864,442.17640 C 135.67081,457.48591 149.94701,467.84938 166.06841,467.91030 L 586.21380,467.91030 C 602.33528,467.84938 616.61148,457.48591 621.66357,442.17640 L 663.67811,316.13278 C 667.49630,304.71684 665.44751,292.03635 658.42629,282.25856 C 651.40500,272.48076 640.26585,266.79594 628.22835,266.76570 L 376.14110,266.76570 L 124.05387,266.76570 z M 138.75896,306.41693 C 144.54966,306.41700 149.00000,311.12986 149.00000,316.92055 C 149.00000,322.71141 144.54966,327.42419 138.75896,327.42419 C 132.96835,327.42444 128.25533,322.71126 128.25533,316.92055 C 128.25533,311.13002 132.96827,306.41693 138.75896,306.41693 z M 175.25909,306.41693 C 181.04979,306.41700 185.76273,311.12986 185.76273,316.92055 C 185.76281,322.71141 181.04979,327.42419 175.25909,327.42419 C 169.46839,327.42444 164.75546,322.71126 164.75546,316.92055 C 164.75554,311.13002 169.46839,306.41693 175.25909,306.41693 z M 211.75921,306.41693 C 217.54983,306.41700 222.26286,311.12986 222.26286,316.92055 C 222.26286,322.71141 217.54992,327.42419 211.75921,327.42419 C 205.96853,327.42444 201.25559,322.71126 201.25559,316.92055 C 201.25559,311.13002 205.96853,306.41693 211.75921,306.41693 z M 248.25934,306.41693 C 254.05005,306.41700 258.76299,311.12986 258.76299,316.92055 C 258.76299,322.71141 254.05005,327.42419 248.25934,327.42419 C 242.46873,327.42444 237.75572,322.71126 237.75572,316.92055 C 237.75572,311.13002 242.46866,306.41693 248.25934,306.41693 z M 284.75947,306.41693 C 290.55018,306.41700 295.26312,311.12986 295.26312,316.92055 C 295.26320,322.71141 290.55018,327.42419 284.75947,327.42419 C 278.96879,327.42444 274.25585,322.71126 274.25585,316.92055 C 274.25593,311.13002 278.96879,306.41693 284.75947,306.41693 z M 321.25962,306.41693 C 327.05023,306.41700 331.76325,311.12986 331.76325,316.92055 C 331.76325,322.71141 327.05031,327.42419 321.25962,327.42419 C 315.46892,327.42444 310.75598,322.71126 310.75598,316.92055 C 310.75598,311.13002 315.46892,306.41693 321.25962,306.41693 z M 357.75975,306.41693 C 363.55044,306.41700 368.26338,311.12986 368.26338,316.92055 C 368.26338,322.71141 363.55044,327.42419 357.75975,327.42419 C 351.96913,327.42444 347.25611,322.71126 347.25611,316.92055 C 347.25611,311.13002 351.96905,306.41693 357.75975,306.41693 z M 394.25988,306.41693 C 400.05057,306.41700 404.76350,311.12986 404.76350,316.92055 C 404.76359,322.71141 400.05057,327.42419 394.25988,327.42419 C 388.46918,327.42444 383.75624,322.71126 383.75624,316.92055 C 383.75616,311.13002 388.46918,306.41693 394.25988,306.41693 z M 430.76001,306.41693 C 436.55070,306.41700 441.26364,311.12986 441.26364,316.92055 C 441.26356,322.71141 436.55070,327.42419 430.76001,327.42419 C 424.96931,327.42444 420.25637,322.71126 420.25637,316.92055 C 420.25629,311.13002 424.96931,306.41693 430.76001,306.41693 z M 467.26014,306.41693 C 473.05075,306.41700 477.76377,311.12986 477.76377,316.92055 C 477.76377,322.71141 473.05083,327.42419 467.26014,327.42419 C 461.46943,327.42444 456.75650,322.71126 456.75650,316.92055 C 456.75650,311.13002 461.46943,306.41693 467.26014,306.41693 z M 503.76027,306.41693 C 509.55096,306.41700 514.26390,311.12986 514.26390,316.92055 C 514.26390,322.71141 509.55096,327.42419 503.76027,327.42419 C 497.96966,327.42444 493.25663,322.71126 493.25663,316.92055 C 493.25663,311.13002 497.96956,306.41693 503.76027,306.41693 z M 540.26040,306.41693 C 546.05109,306.41700 550.76403,311.12986 550.76403,316.92055 C 550.76395,322.71141 546.05109,327.42419 540.26040,327.42419 C 534.46970,327.42444 530.01935,322.71126 530.01935,316.92055 C 530.01928,311.13002 534.46970,306.41693 540.26040,306.41693 z M 577.02312,306.41693 C 582.81374,306.41700 587.26416,311.12986 587.26416,316.92055 C 587.26416,322.71141 582.81382,327.42419 577.02312,327.42419 C 571.23242,327.42444 566.51948,322.71126 566.51948,316.92055 C 566.51948,311.13002 571.23242,306.41693 577.02312,306.41693 z M 613.52325,306.41693 C 619.31386,306.41700 624.02688,311.12986 624.02688,316.92055 C 624.02688,322.71141 619.31395,327.42419 613.52325,327.42419 C 607.73255,327.42444 603.01962,322.71126 603.01962,316.92055 C 603.01962,311.13002 607.73255,306.41693 613.52325,306.41693 z M 193.37785,402.00000 C 199.16848,401.99974 203.88150,406.71293 203.88150,412.50362 C 203.88150,418.29415 199.16855,423.00726 193.37785,423.00726 C 187.58716,423.00719 182.87423,418.29433 182.87423,412.50362 C 182.87423,406.71276 187.58716,402.00000 193.37785,402.00000 z M 229.87800,402.00000 C 235.66868,401.99974 240.38163,406.71293 240.38163,412.50362 C 240.38163,418.29415 235.66868,423.00726 229.87800,423.00726 C 224.08737,423.00719 219.37436,418.29433 219.37436,412.50362 C 219.37436,406.71276 224.08729,402.00000 229.87800,402.00000 z M 266.37813,402.00000 C 272.16882,401.99974 276.88176,406.71293 276.88176,412.50362 C 276.88167,418.29415 272.16882,423.00726 266.37813,423.00726 C 260.58743,423.00719 255.87448,418.29433 255.87448,412.50362 C 255.87440,406.71276 260.58743,402.00000 266.37813,402.00000 z M 302.87826,402.00000 C 308.66887,401.99974 313.38189,406.71293 313.38189,412.50362 C 313.38189,418.29415 308.66895,423.00726 302.87826,423.00726 C 297.08756,423.00719 292.37461,418.29433 292.37461,412.50362 C 292.37461,406.71276 297.08756,402.00000 302.87826,402.00000 z M 339.37839,402.00000 C 345.16908,401.99974 349.88201,406.71293 349.88201,412.50362 C 349.88201,418.29415 345.16908,423.00726 339.37839,423.00726 C 333.58778,423.00719 329.13734,418.29433 329.13734,412.50362 C 329.13734,406.71276 333.58769,402.00000 339.37839,402.00000 z M 376.14110,402.00000 C 381.93180,401.99974 386.64474,406.71293 386.64474,412.50362 C 386.64466,418.29415 381.93180,423.00726 376.14110,423.00726 C 370.35041,423.00719 365.63747,418.29433 365.63747,412.50362 C 365.63739,406.71276 370.35041,402.00000 376.14110,402.00000 z M 412.64124,402.00000 C 418.43185,401.99974 423.14487,406.71293 423.14487,412.50362 C 423.14487,418.29415 418.43193,423.00726 412.64124,423.00726 C 406.85054,423.00719 402.13760,418.29433 402.13760,412.50362 C 402.13768,406.71276 406.85054,402.00000 412.64124,402.00000 z M 449.14138,402.00000 C 454.93206,401.99974 459.64500,406.71293 459.64500,412.50362 C 459.64500,418.29415 454.93206,423.00726 449.14138,423.00726 C 443.35075,423.00719 438.63773,418.29433 438.63773,412.50362 C 438.63773,406.71276 443.35067,402.00000 449.14138,402.00000 z M 485.64151,402.00000 C 491.43212,401.99974 496.14513,406.71293 496.14513,412.50362 C 496.14513,418.29415 491.43219,423.00726 485.64151,423.00726 C 479.85080,423.00719 475.13786,418.29433 475.13786,412.50362 C 475.13786,406.71276 479.85080,402.00000 485.64151,402.00000 z M 522.14163,402.00000 C 527.93232,401.99974 532.64526,406.71293 532.64526,412.50362 C 532.64526,418.29415 527.93232,423.00726 522.14163,423.00726 C 516.35102,423.00719 511.63799,418.29433 511.63799,412.50362 C 511.63799,406.71276 516.35093,402.00000 522.14163,402.00000 z M 558.64176,402.00000 C 564.43246,401.99974 569.14539,406.71293 569.14539,412.50362 C 569.14548,418.29415 564.43246,423.00726 558.64176,423.00726 C 552.85106,423.00719 548.13812,418.29433 548.13812,412.50362 C 548.13822,406.71276 552.85106,402.00000 558.64176,402.00000 z "
       style="fill:#000000;fill-opacity:1.0000000;fill-rule:evenodd;stroke:none;stroke-width:2.0000000;stroke-linecap:butt;stroke-linejoin:round;stroke-miterlimit:4.0000000;stroke-opacity:1.0000000" />
  </g>
</svg>
