<?xml version="1.0" encoding="UTF-8" standalone="no"?>
<!-- Created with Inkscape (http://www.inkscape.org/) -->
<svg
   xmlns:dc="http://purl.org/dc/elements/1.1/"
   xmlns:cc="http://web.resource.org/cc/"
   xmlns:rdf="http://www.w3.org/1999/02/22-rdf-syntax-ns#"
   xmlns:svg="http://www.w3.org/2000/svg"
   xmlns="http://www.w3.org/2000/svg"
   xmlns:sodipodi="http://inkscape.sourceforge.net/DTD/sodipodi-0.dtd"
   xmlns:inkscape="http://www.inkscape.org/namespaces/inkscape"
   width="600.00000pt"
   height="600.00000pt"
   id="svg2"
   sodipodi:version="0.32"
   inkscape:version="0.41"
   sodipodi:docbase="/home/support/Source/ezix-workspace/packages/lshw/development/src/gui/artwork"
   sodipodi:docname="radio.svg">
  <defs
     id="defs3" />
  <sodipodi:namedview
     id="base"
     pagecolor="#ffffff"
     bordercolor="#666666"
     borderopacity="1.0"
     inkscape:pageopacity="0.0"
     inkscape:pageshadow="2"
     inkscape:zoom="0.35000000"
     inkscape:cx="374.99978"
     inkscape:cy="334.28519"
     inkscape:document-units="px"
     inkscape:current-layer="layer1"
     inkscape:grid-points="true"
     showgrid="true"
     gridspacingx="10.000000px"
     gridspacingy="10.000000px"
     inkscape:window-width="842"
     inkscape:window-height="676"
     inkscape:window-x="0"
     inkscape:window-y="26" />
  <metadata
     id="metadata4">
    <rdf:RDF
       id="RDF5">
      <cc:Work
         rdf:about=""
         id="Work6">
        <dc:format
           id="format7">image/svg+xml</dc:format>
        <dc:type
           id="type9"
           rdf:resource="http://purl.org/dc/dcmitype/StillImage" />
        <dc:title
           id="title2866">Radio</dc:title>
        <dc:date
           id="date2868">2005/03/28</dc:date>
        <dc:creator
           id="creator2870">
          <cc:Agent
             id="Agent2872">
            <dc:title
               id="title2874">Lyonel Vincent</dc:title>
          </cc:Agent>
        </dc:creator>
        <dc:publisher
           id="publisher2876">
          <cc:Agent
             id="Agent2878">
            <dc:title
               id="title2880">ezIX.org</dc:title>
          </cc:Agent>
        </dc:publisher>
        <dc:identifier
           id="identifier2882">radio</dc:identifier>
        <dc:language
           id="language2884">C</dc:language>
        <dc:subject
           id="subject2886">
          <rdf:Bag
             id="Bag2888">
            <rdf:li
               id="li2916">radio wireless</rdf:li>
          </rdf:Bag>
        </dc:subject>
        <cc:license
           id="license2918"
           rdf:resource="http://creativecommons.org/licenses/GPL/2.0/" />
        <dc:source
           id="source1314">$Id$</dc:source>
      </cc:Work>
      <cc:License
         rdf:about="http://creativecommons.org/licenses/GPL/2.0/"
         id="License2920">
        <cc:permits
           rdf:resource="http://web.resource.org/cc/Reproduction"
           id="permits2922" />
        <cc:permits
           rdf:resource="http://web.resource.org/cc/Distribution"
           id="permits2924" />
        <cc:requires
           rdf:resource="http://web.resource.org/cc/Notice"
           id="requires2926" />
        <cc:permits
           rdf:resource="http://web.resource.org/cc/DerivativeWorks"
           id="permits2928" />
        <cc:requires
           rdf:resource="http://web.resource.org/cc/ShareAlike"
           id="requires2930" />
        <cc:requires
           rdf:resource="http://web.resource.org/cc/SourceCode"
           id="requires2932" />
      </cc:License>
    </rdf:RDF>
  </metadata>
  <g
     inkscape:label="Layer 1"
     inkscape:groupmode="layer"
     id="layer1">
    <g
       id="g2862"
       transform="matrix(0.000000,-6.235337,6.235337,0.000000,-2424.995,2807.298)"
       style="fill:#000000;fill-opacity:1.0000000">
      <path
         style="fill-rule:evenodd;stroke:none;stroke-width:0.70042343pt;stroke-linecap:butt;stroke-linejoin:miter;stroke-opacity:1.0000000"
         d="M 427.28125,405.40625 L 418.68750,410.34375 C 425.44204,422.02041 429.37500,435.54740 429.37500,450.00000 C 429.37500,464.45260 425.44204,477.97959 418.68750,489.65625 L 427.28125,494.59375 C 434.87895,481.45294 439.31250,466.25582 439.31250,450.00000 C 439.31250,433.74418 434.87895,418.54706 427.28125,405.40625 z M 409.93750,415.40625 L 401.25000,420.40625 C 406.30786,429.12340 409.25000,439.20208 409.25000,450.00000 C 409.25000,460.79793 406.30786,470.87660 401.25000,479.59375 L 409.93750,484.59375 C 415.84258,474.40393 419.28126,462.61536 419.28125,450.00000 C 419.28125,437.38464 415.84258,425.59607 409.93750,415.40625 z M 392.43750,425.50000 L 383.78125,430.50000 C 387.11282,436.26038 389.15625,442.87140 389.15625,450.00000 C 389.15625,457.12860 387.11282,463.73962 383.78125,469.50000 L 392.43750,474.50000 C 396.63537,467.26289 399.21876,458.96373 399.21875,450.00000 C 399.21875,441.03627 396.63536,432.73711 392.43750,425.50000 z M 375.09375,435.53125 L 366.75000,440.34375 C 368.40015,443.19651 369.40625,446.46985 369.40625,450.00000 C 369.40625,453.53014 368.40015,456.80349 366.75000,459.65625 L 375.09375,464.46875 C 377.56283,460.18967 379.06250,455.29101 379.06250,450.00000 C 379.06250,444.70899 377.56283,439.81033 375.09375,435.53125 z "
         id="path2064" />
      <path
         sodipodi:type="arc"
         style="fill-rule:evenodd;stroke:none;stroke-width:1.0000000pt;stroke-linecap:butt;stroke-linejoin:miter;stroke-opacity:1.0000000"
         id="path2857"
         sodipodi:cx="350.00000"
         sodipodi:cy="450.48978"
         sodipodi:rx="13.619203"
         sodipodi:ry="13.619203"
         d="M 363.61920 450.48978 A 13.619203 13.619203 0 1 1  336.38080,450.48978 A 13.619203 13.619203 0 1 1  363.61920 450.48978 z"
         transform="matrix(0.734257,0.000000,0.000000,0.734259,93.00989,119.2239)" />
    </g>
  </g>
</svg>
