<?xml version="1.0" encoding="UTF-8" standalone="no"?>
<!-- Created with Inkscape (http://www.inkscape.org/) -->
<svg
   xmlns:dc="http://purl.org/dc/elements/1.1/"
   xmlns:cc="http://web.resource.org/cc/"
   xmlns:rdf="http://www.w3.org/1999/02/22-rdf-syntax-ns#"
   xmlns:svg="http://www.w3.org/2000/svg"
   xmlns="http://www.w3.org/2000/svg"
   xmlns:xlink="http://www.w3.org/1999/xlink"
   xmlns:sodipodi="http://inkscape.sourceforge.net/DTD/sodipodi-0.dtd"
   xmlns:inkscape="http://www.inkscape.org/namespaces/inkscape"
   width="600.00000pt"
   height="600.00000pt"
   id="svg2"
   sodipodi:version="0.32"
   inkscape:version="0.41"
   sodipodi:docbase="/home/support/Source/ezix-workspace/packages/lshw/development/src/gui/artwork"
   sodipodi:docname="tower-computer.svg">
  <defs
     id="defs3">
    <linearGradient
       inkscape:collect="always"
       id="linearGradient2102">
      <stop
         style="stop-color:#726d7f;stop-opacity:1;"
         offset="0"
         id="stop2104" />
      <stop
         style="stop-color:#726d7f;stop-opacity:0;"
         offset="1"
         id="stop2106" />
    </linearGradient>
    <linearGradient
       id="linearGradient2838">
      <stop
         id="stop2840"
         offset="0.0000000"
         style="stop-color:#000000;stop-opacity:1.0000000;" />
      <stop
         id="stop2842"
         offset="1.0000000"
         style="stop-color:#000000;stop-opacity:0.0000000;" />
    </linearGradient>
    <linearGradient
       gradientUnits="userSpaceOnUse"
       y2="336.16794"
       x2="422.29895"
       y1="188.58949"
       x1="117.34206"
       gradientTransform="scale(1.235013,0.809708)"
       id="linearGradient2844"
       xlink:href="#linearGradient2838"
       inkscape:collect="always" />
    <linearGradient
       inkscape:collect="always"
       xlink:href="#linearGradient2102"
       id="linearGradient2112"
       gradientTransform="scale(0.943567,1.059808)"
       x1="202.28809"
       y1="104.67563"
       x2="573.30255"
       y2="243.77264"
       gradientUnits="userSpaceOnUse" />
    <linearGradient
       inkscape:collect="always"
       xlink:href="#linearGradient2102"
       id="linearGradient2118"
       gradientUnits="userSpaceOnUse"
       gradientTransform="scale(0.943567,1.059808)"
       x1="202.28809"
       y1="104.67563"
       x2="573.30255"
       y2="243.77264" />
  </defs>
  <sodipodi:namedview
     inkscape:guide-bbox="true"
     showguides="true"
     id="base"
     pagecolor="#ffffff"
     bordercolor="#666666"
     borderopacity="1.0"
     inkscape:pageopacity="0.0"
     inkscape:pageshadow="2"
     inkscape:zoom="0.70000000"
     inkscape:cx="215.36813"
     inkscape:cy="324.22695"
     inkscape:document-units="px"
     inkscape:current-layer="layer1"
     inkscape:window-width="1090"
     inkscape:window-height="934"
     inkscape:window-x="79"
     inkscape:window-y="25" />
  <metadata
     id="metadata4">
    <rdf:RDF
       id="RDF5">
      <cc:Work
         rdf:about=""
         id="Work6">
        <dc:format
           id="format7">image/svg+xml</dc:format>
        <dc:type
           id="type9"
           rdf:resource="http://purl.org/dc/dcmitype/StillImage" />
        <dc:date
           id="date2068">2005/04/30</dc:date>
        <dc:creator
           id="creator2070">
          <cc:Agent
             id="Agent2072">
            <dc:title
               id="title2074">Lyonel Vincent</dc:title>
          </cc:Agent>
        </dc:creator>
        <dc:publisher
           id="publisher2076">
          <cc:Agent
             id="Agent2078">
            <dc:title
               id="title2080">ezIX.org</dc:title>
          </cc:Agent>
        </dc:publisher>
        <dc:identifier
           id="identifier2082">tower</dc:identifier>
        <dc:source
           id="source2084">$Id$</dc:source>
        <dc:language
           id="language2086">C</dc:language>
        <dc:subject
           id="subject2088">
          <rdf:Bag
             id="Bag2090">
            <rdf:li
               id="li1361">tower computer</rdf:li>
          </rdf:Bag>
        </dc:subject>
        <cc:license
           id="license2122"
           rdf:resource="http://creativecommons.org/licenses/GPL/2.0/" />
        <dc:title
           id="title2138">towe computer</dc:title>
      </cc:Work>
      <cc:License
         rdf:about="http://creativecommons.org/licenses/GPL/2.0/"
         id="License2124">
        <cc:permits
           rdf:resource="http://web.resource.org/cc/Reproduction"
           id="permits2126" />
        <cc:permits
           rdf:resource="http://web.resource.org/cc/Distribution"
           id="permits2128" />
        <cc:requires
           rdf:resource="http://web.resource.org/cc/Notice"
           id="requires2130" />
        <cc:permits
           rdf:resource="http://web.resource.org/cc/DerivativeWorks"
           id="permits2132" />
        <cc:requires
           rdf:resource="http://web.resource.org/cc/ShareAlike"
           id="requires2134" />
        <cc:requires
           rdf:resource="http://web.resource.org/cc/SourceCode"
           id="requires2136" />
      </cc:License>
    </rdf:RDF>
  </metadata>
  <g
     inkscape:label="Layer 1"
     inkscape:groupmode="layer"
     id="layer1">
    <image
       y="17.194546"
       x="-28.146955"
       id="image1418"
       height="737.74683"
       width="907.42853"
       sodipodi:absref="/home/support/Source/ezix-workspace/packages/lshw/development/src/gui/artwork/G408903062005.jpg"
       xlink:href="G408903062005.jpg" />
    <g
       id="g7542">
      <path
         sodipodi:nodetypes="czzzzz"
         id="path7528"
         d="M 434.61814,517.91745 C 431.75127,517.94982 426.78945,534.16407 442.95189,534.83751 C 459.11433,535.51094 502.29835,536.35274 532.85547,535.84766 C 563.41259,535.34258 609.29035,532.90138 626.29458,531.80705 C 643.29881,530.71272 637.93191,523.46803 637.40625,521.45298 L 434.61814,517.91745 z "
         style="stroke-miterlimit:4.0000000;stroke-dasharray:none;stroke-opacity:1.0000000;stroke-linejoin:round;stroke-linecap:round;stroke-width:5.0000000;stroke:#000000;fill-rule:evenodd;fill-opacity:1.0000000;fill:#c2c2c2" />
      <g
         id="g3715">
        <path
           sodipodi:nodetypes="czzzzzzzzz"
           id="path1421"
           d="M 434.36559,62.086117 L 620.23366,60.065812 C 649.76358,59.744835 649.52809,66.968521 649.52809,72.187642 L 649.52809,512.61415 C 649.52809,516.37877 649.19136,523.38912 645.48747,525.74614 C 641.78358,528.10316 561.13974,529.11332 536.89608,529.78675 C 512.65242,530.46018 428.99218,530.99031 424.26407,527.76644 C 419.28890,524.37412 418.72369,516.33897 418.70823,513.62431 L 416.18285,70.167338 C 416.16368,66.800217 422.92351,62.210487 434.36559,62.086117 z "
           style="fill:#c2c2c2;fill-opacity:1.0000000;fill-rule:evenodd;stroke:#000000;stroke-width:5.0000000;stroke-linecap:round;stroke-linejoin:round;stroke-opacity:1.0000000;stroke-dasharray:none;stroke-miterlimit:4.0000000" />
        <path
           sodipodi:nodetypes="czzzzzzzzzz"
           id="path2183"
           d="M 442.85714,81.428571 C 445.01381,81.392193 507.26190,80.119048 536.42857,80.000000 C 565.59524,79.880952 605.19067,81.157080 617.85714,80.714285 C 631.02806,80.253855 637.81904,81.245486 637.85714,95.000000 L 638.57143,352.85714 C 638.59731,362.19877 631.66667,367.61905 615.71429,368.57143 C 599.76191,369.52381 563.21429,369.28571 535.71429,369.28571 C 508.21429,369.28571 467.02382,369.52381 450.71429,368.57143 C 434.40476,367.61905 432.88532,354.33078 432.85714,349.28571 L 431.42857,93.571428 C 431.39518,87.595029 440.44800,81.469207 442.85714,81.428571 z "
           style="stroke-miterlimit:4.0000000;stroke-dasharray:none;stroke-opacity:1.0000000;stroke-linejoin:round;stroke-linecap:butt;stroke-width:1.0000000;stroke:#000000;fill-rule:evenodd;fill-opacity:1.0000000;fill:#5e5e5e" />
        <path
           id="path2185"
           d="M 535.87500 84.312500 C 505.23371 84.480859 449.41536 84.374109 443.21875 85.562500 C 437.07366 86.741012 435.86142 92.217631 435.87500 94.406250 L 436.15625 140.87500 L 633.28125 140.87500 L 633.37500 94.406250 C 633.37931 92.323772 633.02228 89.774801 631.84375 88.343750 C 630.66524 86.912701 628.31527 85.846591 626.28125 85.812500 C 624.24725 85.778411 566.51630 84.144143 535.87500 84.312500 z M 436.18750 142.90625 L 436.53125 196.93750 L 633.15625 196.93750 L 633.28125 142.90625 L 436.18750 142.90625 z M 436.53125 198.96875 L 436.84375 249.96875 L 633.06250 249.96875 L 633.15625 198.96875 L 436.53125 198.96875 z M 436.87500 252.00000 L 437.40625 338.87500 C 437.42374 341.69715 439.17212 353.00001 450.03125 353.00000 C 461.14293 353.00000 508.53782 353.16837 536.90625 353.00000 C 565.27470 352.83164 608.09694 352.50507 620.21875 352.00000 C 632.08804 351.49492 632.86386 343.74253 632.87500 338.37500 L 633.06250 252.00000 L 436.87500 252.00000 z "
           style="stroke-miterlimit:4.0000000;stroke-dasharray:none;stroke-opacity:1.0000000;stroke-linejoin:round;stroke-linecap:butt;stroke-width:1.0000000;stroke:#000000;fill-rule:evenodd;fill-opacity:1.0000000;fill:#c2c2c2" />
      </g>
      <path
         d="M 539.29518 483.69855 A 2.2728431 2.2728431 0 1 1  534.74950,483.69855 A 2.2728431 2.2728431 0 1 1  539.29518 483.69855 z"
         sodipodi:ry="2.2728431"
         sodipodi:rx="2.2728431"
         sodipodi:cy="483.69855"
         sodipodi:cx="537.02234"
         id="path5238"
         style="fill:#00ff10;fill-opacity:0.75000000;fill-rule:evenodd;stroke:#000000;stroke-width:1.0000000pt;stroke-linecap:butt;stroke-linejoin:miter;stroke-opacity:1.0000000"
         sodipodi:type="arc" />
      <g
         id="g7522">
        <path
           transform="translate(0.505076,0.505076)"
           d="M 548.51281 449.47961 A 11.616755 11.616755 0 1 1  525.27930,449.47961 A 11.616755 11.616755 0 1 1  548.51281 449.47961 z"
           sodipodi:ry="11.616755"
           sodipodi:rx="11.616755"
           sodipodi:cy="449.47961"
           sodipodi:cx="536.89606"
           id="path3720"
           style="stroke-miterlimit:4.0000000;stroke-dasharray:none;fill:#5e5e5e;fill-opacity:1.0000000;fill-rule:evenodd;stroke:#000000;stroke-width:2.0000000;stroke-linecap:round;stroke-linejoin:round;stroke-opacity:1.0000000"
           sodipodi:type="arc" />
        <g
           id="g7518">
          <path
             sodipodi:open="true"
             sodipodi:end="10.335840"
             sodipodi:start="5.3616515"
             transform="translate(0.252538,0.000000)"
             d="M 538.77821,447.79769 A 2.9041886,2.9041886 0 1 1 535.24234,447.81620"
             sodipodi:ry="2.9041886"
             sodipodi:rx="2.9041886"
             sodipodi:cy="450.11096"
             sodipodi:cx="537.02234"
             id="path5998"
             style="stroke-opacity:1.0000000;stroke-linejoin:round;stroke-linecap:round;stroke-width:1.0000000pt;stroke:#000000;fill-rule:evenodd;fill-opacity:0.75000000;fill:none"
             sodipodi:type="arc" />
          <path
             id="path6758"
             d="M 537.14862,446.32289 L 537.27489,450.86858"
             style="fill:none;fill-opacity:0.75000000;fill-rule:evenodd;stroke:#000000;stroke-width:1.0000000pt;stroke-linecap:round;stroke-linejoin:round;stroke-opacity:1.0000000" />
        </g>
      </g>
    </g>
    <g
       id="g7578">
      <path
         sodipodi:nodetypes="ccczzzcc"
         id="path7555"
         d="M 8.0812204,507.56339 L 7.0710678,520.69537 L 450.52803,707.57359 L 571.74634,609.58880 C 583.33223,600.22354 583.36310,582.98811 581.84787,580.29437 C 580.33264,577.60063 578.00506,574.05365 574.77680,573.22330 L 154.55334,465.13698 L 8.0812204,507.56339 z "
         style="stroke-dasharray:none;stroke-opacity:1.0000000;stroke-miterlimit:4.0000000;stroke-linejoin:round;stroke-linecap:round;stroke-width:6.2500000;stroke:#000000;fill-rule:evenodd;fill-opacity:1.0000000;fill:#c2c2c2" />
      <path
         sodipodi:nodetypes="ccccc"
         id="path7557"
         d="M 38.508349,512.52749 L 243.44676,597.46697 L 352.78834,542.37776 L 139.01853,480.70769 L 38.508349,512.52749 z "
         style="fill:#5e5e5e;fill-opacity:1.0000000;fill-rule:evenodd;stroke:#000000;stroke-width:1.2500000;stroke-linecap:round;stroke-linejoin:round;stroke-miterlimit:4.0000000;stroke-opacity:1.0000000" />
      <path
         sodipodi:nodetypes="ccccc"
         id="path7559"
         d="M 320.20305,566.97165 L 388.44676,591.03840 L 427.07406,565.23491 L 359.96305,546.66708 L 320.20305,566.97165 z "
         style="fill:#5e5e5e;fill-opacity:1.0000000;fill-rule:evenodd;stroke:#000000;stroke-width:1.2500000;stroke-linecap:round;stroke-linejoin:round;stroke-miterlimit:4.0000000;stroke-opacity:1.0000000" />
      <path
         sodipodi:nodetypes="ccccc"
         id="path7561"
         d="M 335.20305,634.11451 L 447.73247,676.03840 L 541.35977,598.09206 L 437.10591,568.09566 L 335.20305,634.11451 z "
         style="fill:#5e5e5e;fill-opacity:1.0000000;fill-rule:evenodd;stroke:#000000;stroke-width:1.2500000;stroke-linecap:round;stroke-linejoin:round;stroke-miterlimit:4.0000000;stroke-opacity:1.0000000" />
      <path
         sodipodi:nodetypes="ccccccccc"
         id="path7563"
         d="M 255.00000,602.14286 L 282.14285,587.85714 L 300.71429,594.28571 L 317.85714,585.00000 L 344.28571,592.14286 L 325.00000,605.00000 L 347.14285,613.57143 L 320.71429,628.57143 L 255.00000,602.14286 z "
         style="fill:#5e5e5e;fill-opacity:1.0000000;fill-rule:evenodd;stroke:#000000;stroke-width:1.2500000;stroke-linecap:round;stroke-linejoin:round;stroke-miterlimit:4.0000000;stroke-opacity:1.0000000" />
    </g>
  </g>
</svg>
